<?xml version="1.0" standalone="no"?>
<!DOCTYPE svg PUBLIC "-//W3C//DTD SVG 20010904//EN"
 "http://www.w3.org/TR/2001/REC-SVG-20010904/DTD/svg10.dtd">
<svg version="1.0" xmlns="http://www.w3.org/2000/svg"
 width="1000.000000pt" height="10000.000000pt" viewBox="0 0 500.000000 500.000000"
 preserveAspectRatio="xMidYMid meet">

<g transform="translate(0.000000,500.000000) scale(0.100000,-0.100000)"
fill="#000000" stroke="none">
<path d="M2379 4076 c-59 -23 -102 -47 -144 -80 -34 -27 -58 -35 -161 -54
-208 -38 -388 -98 -433 -146 -29 -31 -40 -189 -37 -541 3 -316 18 -445 71
-601 108 -320 380 -591 740 -735 l79 -31 54 17 c95 29 271 125 371 201 256
192 407 436 456 738 17 103 35 432 30 546 -18 377 -19 389 -43 409 -62 50
-234 106 -449 146 -105 19 -128 27 -157 53 -19 16 -60 42 -92 58 -50 24 -72
29 -154 31 -63 2 -107 -2 -131 -11z m-239 -191 c0 -3 -9 -34 -21 -68 -27 -80
-23 -196 10 -280 30 -77 117 -167 199 -205 l61 -29 -244 -427 c-135 -234 -245
-435 -245 -445 0 -62 -55 3 -120 142 -72 154 -104 319 -116 602 -6 143 9 524
22 566 9 31 155 85 331 124 125 27 123 27 123 20z m925 -40 c72 -18 157 -45
190 -61 59 -28 60 -30 69 -79 14 -85 13 -700 -2 -785 -40 -230 -79 -341 -169
-477 l-36 -53 -17 47 c-9 27 -123 232 -252 458 l-235 410 60 30 c69 34 148
107 177 166 54 105 62 241 20 336 -11 25 -20 48 -20 50 0 7 74 -7 215 -42z
m-122 -1636 c-104 -92 -227 -167 -357 -219 -94 -38 -98 -37 -251 39 -107 52
-210 121 -288 192 l-49 44 501 -3 502 -2 -58 -51z"/>
</g>
</svg>
